<?xml version="1.0" encoding="UTF-8" standalone="no"?>
<svg
   width="500"
   height="199.30568"
   viewBox="0 0 500 199.30568"
   fill="none"
   version="1.1"
   id="svg6"
   sodipodi:docname="logo-white.svg"
   inkscape:version="1.3.2 (091e20e, 2023-11-25, custom)"
   xmlns:inkscape="http://www.inkscape.org/namespaces/inkscape"
   xmlns:sodipodi="http://sodipodi.sourceforge.net/DTD/sodipodi-0.dtd"
   xmlns="http://www.w3.org/2000/svg"
   xmlns:svg="http://www.w3.org/2000/svg">
  <defs
     id="defs6" />
  <sodipodi:namedview
     id="namedview6"
     pagecolor="#ffffff"
     bordercolor="#999999"
     borderopacity="1"
     inkscape:showpageshadow="2"
     inkscape:pageopacity="0"
     inkscape:pagecheckerboard="0"
     inkscape:deskcolor="#d1d1d1"
     inkscape:zoom="0.86574074"
     inkscape:cx="385.79679"
     inkscape:cy="-34.652406"
     inkscape:window-width="1500"
     inkscape:window-height="912"
     inkscape:window-x="-8"
     inkscape:window-y="-8"
     inkscape:window-maximized="1"
     inkscape:current-layer="svg6" />
  <g
     id="g6"
     transform="scale(4.6350372)">
    <path
       d="M 100.321,12.5283 V 7.7168 h -9.4839 c -6.4911,0 -11.7572,5.2661 -11.7572,11.7572 0,6.491 5.2661,11.7571 11.7572,11.7571 6.491,0 11.7569,-5.2661 11.7569,-11.7571 -0.012,-2.6015 -0.859,-5.0009 -2.273,-6.9457 z m -9.4966,12.7169 c -3.1824,0 -5.7712,-2.5889 -5.7712,-5.7712 0,-3.1824 2.5888,-5.7713 5.7712,-5.7713 3.1824,0 5.7713,2.5889 5.7713,5.7713 0,3.195 -2.5763,5.7712 -5.7713,5.7712 z"
       fill="#FFFEFE"
       id="path1"
       style="fill:#000000;fill-opacity:1" />
    <path
       d="m 90.7231,37.0139 v 5.9859 c 6.4911,0 11.7569,-5.2661 11.7569,-11.7571 h -5.9856 c 0,3.1824 -2.5889,5.7712 -5.7713,5.7712 z"
       fill="#FFFEFE"
       id="path2"
       style="fill:#000000;fill-opacity:1" />
    <path
       d="m 104.11,0 c -2.083,0 -3.763,1.69222 -3.763,3.7633 0,2.08371 1.692,3.7633 3.763,3.7633 2.084,0 3.764,-1.69222 3.764,-3.7633 C 107.874,1.69222 106.194,0 104.11,0 Z"
       fill="#FFFEFE"
       id="path3"
       style="fill:#000000;fill-opacity:1" />
    <path
       d="m 66.363,7.75391 c -3.334,0 -6.1501,1.65433 -7.956,3.58649 -1.7554,-2.1721 -4.4831,-3.58649 -7.5392,-3.58649 -2.1721,0 -4.3064,0.70719 -6.0617,2.31099 V 8.22116 H 39.0222 V 31.1167 h 6.0112 V 16.2529 c 0.8335,-1.086 2.6899,-2.8288 5.2282,-2.8288 1.1618,0 2.4499,0.3789 3.3844,1.4144 0.6946,0.8082 1.1114,1.8438 1.1114,3.9149 v 12.3633 h 6.0111 v -12.136 c 0,-0.9472 -0.0884,-1.7933 -0.1894,-2.551 0.783,-1.1744 2.8288,-3.0182 5.4176,-3.0182 1.1619,0 2.45,0.3788 3.3719,1.4144 0.6945,0.8082 1.1113,1.8437 1.1113,3.9148 v 12.3634 h 6.0112 V 18.968 c 0,-3.397 -0.8335,-5.7586 -2.2732,-7.5518 C 72.4247,9.1683 69.4696,7.75391 66.363,7.75391 Z"
       fill="#FFFEFE"
       id="path4"
       style="fill:#000000;fill-opacity:1" />
    <path
       d="M 27.6818,10.5322 V 8.22116 H 21.8979 V 31.1167 h 6.0112 V 16.7202 c 0.7451,-1.3639 2.8288,-3.3087 5.4556,-3.3087 0.884,0 1.7553,0.0884 2.1721,0.2399 l 0.6945,-5.70807 c -0.644,-0.0884 -1.1618,-0.18942 -2.0332,-0.18942 -2.7277,0 -5.1777,1.08605 -6.5163,2.77829 z"
       fill="#FFFEFE"
       id="path5"
       style="fill:#000000;fill-opacity:1" />
    <path
       d="m 7.0846,14.6491 c 0,-1.1618 1.38914,-1.8059 3.0561,-1.8059 1.6165,0 3.1445,0.6946 4.3063,1.5281 L 17.2758,10.027 C 15.7983,8.86522 12.6033,7.75391 9.68608,7.75391 c -4.44524,0 -8.61266,2.68989 -8.61266,6.98359 0,7.2235 10.87318,6.0112 10.87318,9.3956 0,1.1113 -1.2502,1.8943 -2.86669,1.8943 -2.27313,0 -4.62204,-0.8335 -6.15009,-2.2226 L 0,28.1111 c 2.63936,1.9448 5.92278,3.0056 9.0294,3.0056 4.7231,0 8.9284,-2.6394 8.9284,-6.9457 0,-7.7666 -10.8732,-6.6047 -10.8732,-9.5219 z"
       fill="#FFFEFE"
       id="path6"
       style="fill:#000000;fill-opacity:1" />
  </g>
</svg>
